<svg width="240" height="240" viewBox="0 0 240 240" fill="none" xmlns="http://www.w3.org/2000/svg">
  <circle cx="120" cy="120" r="120" fill="#F3C89B"/>
  <circle cx="120" cy="88" r="38" fill="#F9D9B7"/>
  <path d="M82 188C82 158.177 99.9086 134 120 134C140.091 134 158 158.177 158 188" fill="#D7E6EE"/>
  <path d="M83 95C81.8 67.8 97.8333 52 106 47L110 63C125.2 53.4 141.333 58.3333 147.5 62L157 48C171 58.4 170.833 77.6667 169 86C166.2 98.8 158.833 105.667 155.5 107.5C151.9 87.5 139 79.8333 133 78.5C116.2 90.5 95 95.8333 86.5 97L83 95Z" fill="#2D2A39"/>
  <path d="M104 108C107.6 113.6 115.833 116.667 119.5 117.5C131.1 116.7 137 111.5 138.5 109" stroke="#C88469" stroke-width="4" stroke-linecap="round"/>
</svg>