<svg width="420" height="620" viewBox="0 0 420 620" fill="none" xmlns="http://www.w3.org/2000/svg">
  <rect width="420" height="620" rx="28" fill="#DBEAFE"/>
  <rect x="30" y="30" width="360" height="560" rx="22" fill="#EFF6FF"/>
  <path d="M74 116C126 74 191 56 264 70C311 79 338 104 346 145" stroke="#60A5FA" stroke-width="22" stroke-linecap="round"/>
  <path d="M74 182C126 140 191 122 264 136C311 145 338 170 346 211" stroke="#3B82F6" stroke-width="22" stroke-linecap="round"/>
  <path d="M74 248C126 206 191 188 264 202C311 211 338 236 346 277" stroke="#1D4ED8" stroke-width="22" stroke-linecap="round"/>
  <rect x="74" y="382" width="174" height="12" rx="6" fill="#1E3A8A" fill-opacity="0.88"/>
  <rect x="74" y="410" width="218" height="12" rx="6" fill="#2563EB" fill-opacity="0.62"/>
  <rect x="74" y="470" width="96" height="12" rx="6" fill="#1E40AF" fill-opacity="0.42"/>
</svg>