<svg width="420" height="620" viewBox="0 0 420 620" fill="none" xmlns="http://www.w3.org/2000/svg">
  <rect width="420" height="620" rx="28" fill="#0F766E"/>
  <rect x="34" y="34" width="352" height="552" rx="20" fill="url(#paint0_linear_1_1)"/>
  <rect x="74" y="82" width="18" height="456" rx="9" fill="#A7F3D0" fill-opacity="0.55"/>
  <rect x="114" y="114" width="190" height="10" rx="5" fill="#ECFEFF" fill-opacity="0.92"/>
  <rect x="114" y="138" width="152" height="10" rx="5" fill="#CCFBF1" fill-opacity="0.8"/>
  <rect x="114" y="240" width="206" height="174" rx="18" fill="#99F6E4" fill-opacity="0.16"/>
  <path d="M148 372C195 279 232 252 300 212" stroke="#A7F3D0" stroke-width="18" stroke-linecap="round"/>
  <path d="M148 318C199 368 240 393 304 414" stroke="#5EEAD4" stroke-width="18" stroke-linecap="round"/>
  <rect x="114" y="472" width="122" height="10" rx="5" fill="#ECFEFF" fill-opacity="0.92"/>
  <rect x="114" y="498" width="168" height="10" rx="5" fill="#CCFBF1" fill-opacity="0.78"/>
  <defs>
    <linearGradient id="paint0_linear_1_1" x1="210" y1="34" x2="210" y2="586" gradientUnits="userSpaceOnUse">
      <stop stop-color="#0F766E"/>
      <stop offset="1" stop-color="#134E4A"/>
    </linearGradient>
  </defs>
</svg>