<svg width="420" height="620" viewBox="0 0 420 620" fill="none" xmlns="http://www.w3.org/2000/svg">
  <rect width="420" height="620" rx="28" fill="#E5E7EB"/>
  <rect x="40" y="40" width="340" height="540" rx="18" fill="#F9FAFB"/>
  <rect x="72" y="82" width="16" height="476" rx="8" fill="#CBD5E1"/>
  <path d="M134 194C160 138 214 110 280 110C316 110 334 118 348 128" stroke="#D6D3D1" stroke-width="16" stroke-linecap="round"/>
  <path d="M134 246C160 190 214 162 280 162C316 162 334 170 348 180" stroke="#C4B5FD" stroke-width="16" stroke-linecap="round"/>
  <path d="M134 298C160 242 214 214 280 214C316 214 334 222 348 232" stroke="#93C5FD" stroke-width="16" stroke-linecap="round"/>
  <path d="M134 350C160 294 214 266 280 266C316 266 334 274 348 284" stroke="#F9A8D4" stroke-width="16" stroke-linecap="round"/>
  <rect x="134" y="468" width="116" height="12" rx="6" fill="#334155" fill-opacity="0.85"/>
  <rect x="134" y="496" width="190" height="12" rx="6" fill="#64748B" fill-opacity="0.48"/>
</svg>